<svg xmlns="http://www.w3.org/2000/svg" width="1200" height="720" viewBox="0 0 1200 720" role="img" aria-labelledby="title desc">
  <title id="title">고양이 복숭아 간식 안내</title>
  <desc id="desc">고양이와 복숭아 과육, 씨 주의 안내</desc>
  <rect width="1200" height="720" fill="#fff1ec"/>
  <rect x="78" y="78" width="1044" height="564" rx="28" fill="#fffaf7" stroke="#efd0c4" stroke-width="4"/>
  <circle cx="815" cy="360" r="150" fill="#ffb38f"/>
  <path d="M815 210c70 80 70 220 0 300" fill="none" stroke="#e88774" stroke-width="12" stroke-linecap="round"/>
  <ellipse cx="910" cy="245" rx="60" ry="28" fill="#5e9d69" transform="rotate(-25 910 245)"/>
  <path d="M320 420c-60 0-108-48-108-108s48-108 108-108 108 48 108 108-48 108-108 108z" fill="#d8d1c5"/>
  <path d="M235 228l-45-74 90 36zm170 0l45-74-90 36z" fill="#d8d1c5"/>
  <circle cx="280" cy="305" r="13" fill="#21483c"/>
  <circle cx="360" cy="305" r="13" fill="#21483c"/>
  <path d="M310 338q14 12 28 0" fill="none" stroke="#21483c" stroke-width="8" stroke-linecap="round"/>
  <rect x="115" y="520" width="430" height="70" rx="18" fill="#21483c"/>
  <text x="140" y="565" font-family="Arial, sans-serif" font-size="30" font-weight="700" fill="#ffffff">씨는 절대 금지, 과육만 소량</text>
  <text x="115" y="145" font-family="Arial, sans-serif" font-size="50" font-weight="700" fill="#21483c">고양이 복숭아 간식</text>
  <text x="115" y="200" font-family="Arial, sans-serif" font-size="28" fill="#5f6b63">복숭아는 씨와 껍질 관리가 가장 중요합니다.</text>
</svg>
